<svg xmlns="http://www.w3.org/2000/svg" viewBox="0 0 3000 3000" xmlns:xlink="http://www.w3.org/1999/xlink" data-p-any="cb=spock&amp;pos=P0" class="prefix__kitty-preview prefix__color-thundergrey" ><g xmlns="http://www.w3.org/2000/svg" clip-path="url(#prefix__kittyClipPath)"><g xmlns="http://www.w3.org/2000/svg"><clipPath id="prefix__a"><path d="M1717.4 967.2a241.5 241.5 0 0113.7 36.8l16.7 65.1c7.6 32.4 19.5 65.2 43.6 88.3s53.4 39.9 79.7 60.6c90 71 134.4 191.2 118.8 304.8a216.3 216.3 0 00-72.9-76.1 126.4 126.4 0 0125.7 66.1c-17.8-23.2-42.8-40.6-70.5-49.9l36 117.2 29.7 96.5 88.4 287.5a248.1 248.1 0 01-6.4 155.8l.8.3c47.5 13.8 136.8 46.1 179.8 75.5 26.1 17.8 10.1 55.9-23.2 55.3l-261.5-5.1a246.8 246.8 0 01-65.4 28.1c2.8 13.3 12.3 21 28.1 21.9 18.2 1 23.7 18.6 24.5 25.5 2.3 21.2-5.8 34.7-27.9 36.9l-91.8 3a53.5 53.5 0 01-22.3-4 71.6 71.6 0 01-43.1-54.3l-3.5-20.7h-533.5l-5 26.6a71.4 71.4 0 01-8.8 23.9c-13.4 22.8-38.9 35.7-65.3 34.1l-84.3-5c-21.4-1.6-31.9-18.9-27.2-40.4 2.5-11.1 15.1-20.3 30.6-21.1 23.3-1.2 30.3-20.2 29.9-43.6l-.2-3.4q-7-3.7-13.8-7.9L770 2251c-33.3.6-49.7-38.2-23.2-55.3 54-34.9 146.4-69.2 184.5-78.3l.6-.3a248.9 248.9 0 01-12.6-117.5l60-315.5 17.1-89.7 22.2-116.6a194.9 194.9 0 00-45.8 61.9 195.9 195.9 0 01-12.1-91.8c-29 28-43.4 70.4-37.5 110.3-24.9-52.2-30.8-112.6-20.3-169.4s36.8-110.3 72.6-155.7c27.5-34.9 58.2-64.9 83.6-101.2a279.5 279.5 0 0036.4-73.3 294.5 294.5 0 009.2-35.4 240.6 240.6 0 0111.7-40.5l-1.2-.5c-35.7-28.7-68.4-55.4-104.1-84.1-9.7-7.8-20.2-17-21.5-29.4-1.7-17.5 15.7-30.7 32.2-36.6 30.4-10.8 64.3-9.4 95.3-.4a291.9 291.9 0 0185.2 40.3l.3.4a240.6 240.6 0 0171.6-34.3l7.7-2.8c-7.8-12.3-20.7-26.1-41.9-36 0 0 48-47.3 118.7-5 0 0-13.9-74.7-69.4-76.7 0 0 121.4-43.7 189.4 56 0 0 17-35.7 3.3-51 0 0 76.2 25.4 63.8 109.8l8.6 2.6a240.7 240.7 0 0172.7 30.3l3.4-3.1a291.9 291.9 0 0181.5-47.3c30.1-11.5 63.8-15.8 95-7.7 17 4.4 35.4 16.2 35.2 33.7-.2 12.5-9.8 22.5-18.9 31.1-33.1 31.6-71.5 64-104.6 95.6z" fill="none"/></clipPath><g clip-path="url(#prefix__a)"><path fill="#b1b1be" d="M724.1 562.8h1509.4v1824.09H724.1z"/><path fill="#afd0f7" d="M1181.5 2294.7c-5.6-14.6 3.2-56.8 20.7-141.2 10.4-50.5 18.8-83.5 24-105 23.2-97.1 54-233.8 68-286 8-30 31.6-49 72.1-49.1 18.5-.1 46.5 11.1 60.5 25.8a15.7 15.7 0 0023.2-.4c22.8-25 67.4-37.7 98.2-28.1 59.3 18.5 89.2 134.4 122.3 320 6.9 38.6 13.7 77.2 20.7 115.8 4 22.6 7.9 45.3 12 68 9.4 53.2 9.6 54.1 9.3 56.2-9.7 78.5-486.6 140.6-531 24z"/><path fill="#959cae" d="M1167.1 2332.9l-28.1 27.9-44.1 5.8-105.8-10.6v-43.4c32.6-15.1 63.1-58.2 63.1-58.2 37.6-20 50.5-79.6 56.8-133.2a3.6 3.6 0 017.1.1c5.4 65.1 25.3 144.3 66.4 152.6 4 17.1-15.4 59-15.4 59zm681.7-75.4c42.5 28.3 56.7 55.1 56.7 55.1v43.4l-105.7 10.6-44.2-5.8-28-27.9s-7.7-43-13.1-75.4c57.5 1.4 68.4-87.2 69.6-142.4a3.4 3.4 0 016.8-.6c10 48.6 29.7 124.2 57.9 143z"/><path fill="#959cae" d="M931.3 2117.4s33.5 95.1 119.1 136.1l-297.7-2.5-22-32.7 8.5-23.6c56.8-29.8 121.7-55.1 192.1-77.3zm1098-16.7s-28 105.8-132.6 155.8l333.5 4v-80zm-426-1250.3l50.9 36.4 49.3 52.7 49.3 76.6 38.9 63.3c5.2-8.1 1193.7-742.5 1192.5-747.9-2-8.7 0-319.9 0-319.9H1959.8zm-381.1 9.1L818 11.6H18.2v903.2l1046 176.5 38.8-90 28.2-56.9 24.8-29.6 38.3-35.3 27.9-20z"/></g></g><g xmlns="http://www.w3.org/2000/svg" style="mix-blend-mode:multiply"><defs><linearGradient id="prefix__b" x1="1180.91" y1="2153.98" x2="1714.46" y2="2153.98" gradientUnits="userSpaceOnUse"><stop offset="0" stop-color="gray"/><stop offset=".27" stop-color="#7d7d7d"/><stop offset=".46" stop-color="#747474"/><stop offset=".64" stop-color="#646464"/><stop offset=".8" stop-color="#4d4d4d"/><stop offset=".95" stop-color="#303030"/><stop offset="1" stop-color="#242424"/></linearGradient><linearGradient id="prefix__c" x1="1698.67" y1="781.55" x2="1698.67" y2="918.52" gradientTransform="matrix(-.98 .19 .19 .98 2599.64 -240.56)" gradientUnits="userSpaceOnUse"><stop offset="0" stop-color="gray"/><stop offset=".14" stop-color="#797979"/><stop offset=".35" stop-color="#646464"/><stop offset=".6" stop-color="#434343"/><stop offset=".89" stop-color="#141414"/><stop offset="1"/></linearGradient><linearGradient id="prefix__e" x1="967.21" y1="1454.12" x2="967.21" y2="2254.41" href="#prefix__b" xmlns:xlink="http://www.w3.org/1999/xlink" xlink:href="#prefix__b"/><linearGradient id="prefix__f" x1="1971.82" y1="1970.17" x2="1971.82" y2="2305.13" href="#prefix__b" xmlns:xlink="http://www.w3.org/1999/xlink" xlink:href="#prefix__b"/><linearGradient id="prefix__g" x1="712.25" y1="955.89" x2="712.25" y2="1092.86" gradientTransform="rotate(8.1 1951.221 7715.319)" href="#prefix__c" xmlns:xlink="http://www.w3.org/1999/xlink" xlink:href="#prefix__c"/><linearGradient id="prefix__h" x1="1085.95" y1="963.75" x2="1293.19" y2="963.75" href="#prefix__b" xmlns:xlink="http://www.w3.org/1999/xlink" xlink:href="#prefix__b"/><linearGradient id="prefix__i" x1="969.11" y1="1470.94" x2="1062.29" y2="1470.94" href="#prefix__b" xmlns:xlink="http://www.w3.org/1999/xlink" xlink:href="#prefix__b"/><linearGradient id="prefix__j" x1="912.44" y1="1442.16" x2="989.13" y2="1442.16" href="#prefix__b" xmlns:xlink="http://www.w3.org/1999/xlink" xlink:href="#prefix__b"/><linearGradient id="prefix__k" x1="1296.49" y1="775.18" x2="1404.91" y2="775.18" href="#prefix__b" xmlns:xlink="http://www.w3.org/1999/xlink" xlink:href="#prefix__b"/><linearGradient id="prefix__l" x1="1474.19" y1="771.29" x2="1513.42" y2="771.29" href="#prefix__b" xmlns:xlink="http://www.w3.org/1999/xlink" xlink:href="#prefix__b"/><linearGradient id="prefix__m" x1="1235.56" y1="826.93" x2="1306.12" y2="826.93" href="#prefix__b" xmlns:xlink="http://www.w3.org/1999/xlink" xlink:href="#prefix__b"/><clipPath id="prefix__d"><path d="M1717.4 967.2a241.5 241.5 0 0113.7 36.8l16.7 65.1c7.6 32.4 19.5 65.2 43.6 88.3s53.4 39.9 79.7 60.6c90 71 134.4 191.2 118.8 304.8a216.3 216.3 0 00-72.9-76.1 126.4 126.4 0 0125.7 66.1c-17.8-23.2-42.8-40.6-70.5-49.9l36 117.2 29.7 96.5 88.4 287.5a248.1 248.1 0 01-6.4 155.8l.8.3c47.5 13.8 136.8 46.1 179.8 75.5 26.1 17.8 10.1 55.9-23.2 55.3l-261.5-5.1a246.8 246.8 0 01-65.4 28.1c2.8 13.3 12.3 21 28.1 21.9 18.2 1 23.7 18.6 24.5 25.5 2.3 21.2-5.8 34.7-27.9 36.9l-91.8 3a53.5 53.5 0 01-22.3-4 71.6 71.6 0 01-43.1-54.3l-3.5-20.7h-533.5l-5 26.6a71.4 71.4 0 01-8.8 23.9c-13.4 22.8-38.9 35.7-65.3 34.1l-84.3-5c-21.4-1.6-31.9-18.9-27.2-40.4 2.5-11.1 15.1-20.3 30.6-21.1 23.3-1.2 30.3-20.2 29.9-43.6l-.2-3.4q-7-3.7-13.8-7.9L770 2251c-33.3.6-49.7-38.2-23.2-55.3 54-34.9 146.4-69.2 184.5-78.3l.6-.3a248.9 248.9 0 01-12.6-117.5l60-315.5 17.1-89.7 22.2-116.6a194.9 194.9 0 00-45.8 61.9 195.9 195.9 0 01-12.1-91.8c-29 28-43.4 70.4-37.5 110.3-24.9-52.2-30.8-112.6-20.3-169.4s36.8-110.3 72.6-155.7c27.5-34.9 58.2-64.9 83.6-101.2a279.5 279.5 0 0036.4-73.3 294.5 294.5 0 009.2-35.4 240.6 240.6 0 0111.7-40.5l-1.2-.5c-35.7-28.7-68.4-55.4-104.1-84.1-9.7-7.8-20.2-17-21.5-29.4-1.7-17.5 15.7-30.7 32.2-36.6 30.4-10.8 64.3-9.4 95.3-.4a291.9 291.9 0 0185.2 40.3l.3.4a240.6 240.6 0 0171.6-34.3l7.7-2.8c-7.8-12.3-20.7-26.1-41.9-36 0 0 48-47.3 118.7-5 0 0-13.9-74.7-69.4-76.7 0 0 121.4-43.7 189.4 56 0 0 13-40.7-.7-56 0 0 80.2 30.4 67.8 114.8l8.6 2.6a240.7 240.7 0 0172.7 30.3l3.4-3.1a291.9 291.9 0 0181.5-47.3c30.1-11.5 63.8-15.8 95-7.7 17 4.4 35.4 16.2 35.2 33.7-.2 12.5-9.8 22.5-18.9 31.1-33.1 31.6-71.5 64-104.6 95.6z" fill="none"/></clipPath></defs><path fill="none" d="M1.8 0h3000v3000H1.8z"/><g clip-path="url(#prefix__d)"><path d="M1213.2 2110.7c-22.2 91.8 60.8 117.5 83.2 119.2 41.2 3.1 203.6 5.6 287.7-7.9 43.8-7 109.2-65.4 87.3-196.3l43 256.8h-533.5z" opacity=".2" fill="url(#prefix__b)" style="mix-blend-mode:multiply"/><path d="M1050.7 1454.1s.1 2.1.4 5.9a840.4 840.4 0 01-6.6 161.1c-17.7 128.4-31.5 243.2-39.3 305.8a909.6 909.6 0 00-6.8 98.4v3.4c23.5 26 47.6 88.8 52.6 176.8l1.3 49s-31.3-.8-81-.8c-62 0-110.8-111.7-79.2-278.2 28.4-149.5 80.7-435.8 80.7-435.8s22.7-55.6 77.9-85.6z" opacity=".2" fill="url(#prefix__e)" style="mix-blend-mode:multiply"/><path d="M1854.3 2157.4s29.9-91.4 66.3-124.9c-39.4 75 14.1 92.7 28.1 87.7 53.7-19.2 75-66.7 79.2-150l65.3 116.3s-55 256-204 214l-38.7-18.1z" opacity=".2" fill="url(#prefix__f)" style="mix-blend-mode:multiply"/><path d="M1173.5 887s-88.1-44.3-139.7-28.2c-25 7.8-32 21.9-30.2 37.8 10.8 12.7 29.8 13.9 40.1 29.4 25.8 26.5 71.4 56.2 71.4 56.2l23.8-47.8z" opacity=".4" fill="url(#prefix__c)" style="mix-blend-mode:multiply"/><path d="M1651.1 875.6s86-48.2 138.3-34.4c25.3 6.7 32.9 20.4 31.9 36.4-10.2 13.1-29.2 15.3-38.7 31.2-24.6 27.7-68.8 59.4-68.8 59.4l-26-46.6z" opacity=".4" fill="url(#prefix__g)" style="mix-blend-mode:multiply"/><path d="M1293.2 863.8s-138.6 62.4-207.2 228.5c0 0 22.2-217.5 195.8-257.1z" opacity=".2" fill="url(#prefix__h)" style="mix-blend-mode:multiply"/><path d="M969.1 1536.9c4.2-40.3 20.5-67.8 47.6-97.8 7.3-8 45.5-34.1 45.5-34.1s-3.4 39.7-9 47.6c-7.8 11.2-21.1 13.1-32.8 20.2s-17.7 20.8-26.3 31.3" opacity=".2" fill="url(#prefix__i)" style="mix-blend-mode:multiply"/><path d="M919.5 1556.8c-7.4-38.7-10.4-78.8-2.2-117.4s39.7-89 71.8-111.9c-24.5 65.1-25.7 91.7-34.5 133.2" opacity=".2" fill="url(#prefix__j)" style="mix-blend-mode:multiply"/><path d="M1296.5 714.6c31.1-.1 60.6 17.5 79.5 42.3 16.2 21.3 25.1 47.3 28.9 73.9a4.3 4.3 0 01-7.3 3.6c-7-7.3-14.7-14.9-23.1-21.1a97.9 97.9 0 01-27-30.4 2.4 2.4 0 00-1.9-1.3c-2.1-.1-.2 2.8.2 1.5" opacity=".2" fill="url(#prefix__k)" style="mix-blend-mode:multiply"/><path d="M1474.2 743.5a212.7 212.7 0 017.4 81.7 3.3 3.3 0 006.1 2.2c7-10.6 13.8-20.8 19.4-32.2a59.9 59.9 0 00-29.2-81.4" opacity=".2" fill="url(#prefix__l)" style="mix-blend-mode:multiply"/><path d="M1235.6 789.8c18.1-4 38.2-.6 52.6 11.1s21.8 32.2 16.1 49.8c-2.1 6.6-6.6 13.1-13.3 14.9-7.4-16.8-11-37.8-27.4-46.2" opacity=".2" fill="url(#prefix__m)" style="mix-blend-mode:multiply"/></g></g><g xmlns="http://www.w3.org/2000/svg" style="mix-blend-mode:overlay"><defs><linearGradient id="prefix__n" x1="1982.83" y1="2256.39" x2="1982.83" y2="1456.14" gradientUnits="userSpaceOnUse"><stop offset="0" stop-color="#fff" stop-opacity="0"/><stop offset=".72" stop-color="#fff"/></linearGradient><linearGradient id="prefix__p" x1="1676.83" y1="1173.88" x2="1676.83" y2="834.22" href="#prefix__n" xmlns:xlink="http://www.w3.org/1999/xlink" xlink:href="#prefix__n"/><linearGradient id="prefix__q" x1="908.88" y1="1853.92" x2="1039" y2="1853.92" href="#prefix__n" xmlns:xlink="http://www.w3.org/1999/xlink" xlink:href="#prefix__n"/><linearGradient id="prefix__r" x1="2116.32" y1="2248.97" x2="2116.32" y2="2113.28" href="#prefix__n" xmlns:xlink="http://www.w3.org/1999/xlink" xlink:href="#prefix__n"/><linearGradient id="prefix__s" x1="1044.74" y1="2253.08" x2="1044.74" y2="2117.39" gradientTransform="matrix(-1 0 0 1 1878.82 0)" href="#prefix__n" xmlns:xlink="http://www.w3.org/1999/xlink" xlink:href="#prefix__n"/><linearGradient id="prefix__t" x1="1793.84" y1="905.71" x2="1793.84" y2="719.86" gradientTransform="rotate(-43.1 1804.488 883.275)" href="#prefix__n" xmlns:xlink="http://www.w3.org/1999/xlink" xlink:href="#prefix__n"/><linearGradient id="prefix__u" x1="1388.35" y1="547.46" x2="1388.35" y2="361.61" gradientTransform="matrix(-.7 -.71 -.71 .7 2379.32 1527.44)" href="#prefix__n" xmlns:xlink="http://www.w3.org/1999/xlink" xlink:href="#prefix__n"/><linearGradient id="prefix__v" x1="1791.24" y1="1299.2" x2="2064.4" y2="1299.2" href="#prefix__n" xmlns:xlink="http://www.w3.org/1999/xlink" xlink:href="#prefix__n"/><linearGradient id="prefix__w" x1="1854.92" y1="1450.16" x2="1941.81" y2="1450.16" href="#prefix__n" xmlns:xlink="http://www.w3.org/1999/xlink" xlink:href="#prefix__n"/><clipPath id="prefix__o"><path d="M1717.4 967.2a241.5 241.5 0 0113.7 36.8l16.7 65.1c7.6 32.4 19.5 65.2 43.6 88.3s53.4 39.9 79.7 60.6c90 71 134.4 191.2 118.8 304.8a216.3 216.3 0 00-72.9-76.1 126.4 126.4 0 0125.7 66.1c-17.8-23.2-42.8-40.6-70.5-49.9l36 117.2 29.7 96.5 88.4 287.5a248.1 248.1 0 01-6.4 155.8l.8.3c47.5 13.8 136.8 46.1 179.8 75.5 26.1 17.8 10.1 55.9-23.2 55.3l-261.5-5.1a246.8 246.8 0 01-65.4 28.1c2.8 13.3 12.3 21 28.1 21.9 18.2 1 23.7 18.6 24.5 25.5 2.3 21.2-5.8 34.7-27.9 36.9l-91.8 3a53.5 53.5 0 01-22.3-4 71.6 71.6 0 01-43.1-54.3l-3.5-20.7h-533.5l-5 26.6a71.4 71.4 0 01-8.8 23.9c-13.4 22.8-38.9 35.7-65.3 34.1l-84.3-5c-21.4-1.6-31.9-18.9-27.2-40.4 2.5-11.1 15.1-20.3 30.6-21.1 23.3-1.2 30.3-20.2 29.9-43.6l-.2-3.4q-7-3.7-13.8-7.9L770 2251c-33.3.6-49.7-38.2-23.2-55.3 54-34.9 146.4-69.2 184.5-78.3l.6-.3a248.9 248.9 0 01-12.6-117.5l60-315.5 17.1-89.7 22.2-116.6a194.9 194.9 0 00-45.8 61.9 195.9 195.9 0 01-12.1-91.8c-29 28-43.4 70.4-37.5 110.3-24.9-52.2-30.8-112.6-20.3-169.4s36.8-110.3 72.6-155.7c27.5-34.9 58.2-64.9 83.6-101.2a279.5 279.5 0 0036.4-73.3 294.5 294.5 0 009.2-35.4 240.6 240.6 0 0111.7-40.5l-1.2-.5c-35.7-28.7-68.4-55.4-104.1-84.1-9.7-7.8-20.2-17-21.5-29.4-1.7-17.5 15.7-30.7 32.2-36.6 30.4-10.8 64.3-9.4 95.3-.4a291.9 291.9 0 0185.2 40.3l.3.4a240.6 240.6 0 0171.6-34.3l7.7-2.8c-7.8-12.3-20.7-26.1-41.9-36 0 0 48-47.3 118.7-5 0 0-13.9-74.7-69.4-76.7 0 0 121.4-43.7 189.4 56 0 0 13-40.7-.7-56 0 0 80.2 30.4 67.8 114.8l8.6 2.6a240.7 240.7 0 0172.7 30.3l3.4-3.1a291.9 291.9 0 0181.5-47.3c30.1-11.5 63.8-15.8 95-7.7 17 4.4 35.4 16.2 35.2 33.7-.2 12.5-9.8 22.5-18.9 31.1-33.1 31.6-71.5 64-104.6 95.6z" fill="none"/></clipPath></defs><g clip-path="url(#prefix__o)" opacity=".3"><path d="M1886.6 1468.5c56.9 249.1 235.5 405.7 252.9 497.1 21.8 114.7-96.5 75.8-117.2 147.7-9.5 32.9-72.5 107.6-72.5 107.6l-61.1 35.5s127.4-81.3 81.2-286c-19.5-86.7-79-277.4-111.6-379.9q-18.6-58.4-31.3-118.3-1.6-7.5-3.5-16" fill="url(#prefix__n)" style="mix-blend-mode:overlay"/><path d="M1682.7 915.9c-20.7-36.8-78.6-66.4-129.5-81.7l-9 14.9s58.8 19.7 82.5 49.4l4.1 5c7.9 9.3 40.8 52.9 96.8 193.7 12.2 30.8 56.9 51.2 79.7 75.2 20.7 22.1-105.6-222.7-124.6-256.5z" fill="url(#prefix__p)"/><path d="M1039 1462.1l-12.2 8.1-25 16.7s-141 524.6-75.7 624c0 0 42.1 98.3 110.7 134.9-66.7-90.9-116.7-144.9-96.7-256.9s98.9-526.8 98.9-526.8z" fill="url(#prefix__q)"/><path d="M1999.2 2162.4s113.2 21.1 98.4 83.6l92.6 3 43.3-6.5-4.3-68.5-206.8-60.7z" fill="url(#prefix__r)"/><path d="M951.2 2166.5s-113.2 21.1-98.4 83.6l-92.6 3-43.3-6.5 4.3-68.5 206.8-60.7z" opacity=".7" fill="url(#prefix__s)"/><path d="M1632.5 868.9s75-44.5 115.2-47c43.6-2.6 70.4-2 85.9 39 11.7 31 36.1-11.5 36.1-11.5l-52.5-90-204 80z" fill="url(#prefix__t)"/><path d="M1187.5 883.7s-61-40.2-101-44.3c-43.4-4.5-70.2-5-87.5 35.3-13 30.4-35.6-13.1-35.6-13.1l56.3-87.7 200.4 88.7z" fill="url(#prefix__u)"/><path d="M1791.2 1167.2c106.3 83.4 177.8 209.7 194.8 343.8 1 8.1 3.2 17.8 10.9 20.2s14.1-3.7 18.9-9.4c19.4-23.4 30-52.9 37.1-82.4 16.5-68.3 16-141.6-8-207.7s-72.5-124.2-136.4-153.5c-19.8-9.1-42.7-15.4-63.2-8" fill="url(#prefix__v)" style="mix-blend-mode:overlay"/><path d="M1855.7 1407.2a2.5 2.5 0 013.2-3.9c5 3.3 9.9 6.6 15 9.6 17.1 10.2 34.6 20.6 47.5 35.8 5 5.9 28.5 42.7 17.5 48.1s-29.3-32.2-34.7-37.6c-16.1-15.9-31.4-35.5-48.5-52z" fill="url(#prefix__w)" style="mix-blend-mode:overlay"/></g></g><path d="M1717.4 967.2a241.5 241.5 0 0113.7 36.8l16.7 65.1c7.6 32.4 19.5 65.2 43.6 88.3s53.4 39.9 79.7 60.6c90 71 134.4 191.2 118.8 304.8a216.3 216.3 0 00-72.9-76.1 126.4 126.4 0 0125.7 66.1c-17.8-23.2-42.8-40.6-70.5-49.9l36 117.2 29.7 96.5 88.4 287.5a248.1 248.1 0 01-6.4 155.8l.8.3c47.5 13.8 136.8 46.1 179.8 75.5 26.1 17.8 10.1 55.9-23.2 55.3l-261.5-5.1a246.8 246.8 0 01-65.4 28.1c2.8 13.3 12.3 21 28.1 21.9 18.2 1 23.7 18.6 24.5 25.5 2.3 21.2-5.8 34.7-27.9 36.9l-91.8 3a53.5 53.5 0 01-22.3-4 71.6 71.6 0 01-43.1-54.3l-3.5-20.7h-533.5l-5 26.6a71.4 71.4 0 01-8.8 23.9c-13.4 22.8-38.9 35.7-65.3 34.1l-84.3-5c-21.4-1.6-31.9-18.9-27.2-40.4 2.5-11.1 15.1-20.3 30.6-21.1 23.3-1.2 30.3-20.2 29.9-43.6l-.2-3.4q-7-3.7-13.8-7.9L770 2251c-33.3.6-49.7-38.2-23.2-55.3 54-34.9 146.4-69.2 184.5-78.3l.6-.3a248.9 248.9 0 01-12.6-117.5l60-315.5 17.1-89.7 22.2-116.6a194.9 194.9 0 00-45.8 61.9 195.9 195.9 0 01-12.1-91.8c-29 28-43.4 70.4-37.5 110.3-24.9-52.2-30.8-112.6-20.3-169.4s36.8-110.3 72.6-155.7c27.5-34.9 58.2-64.9 83.6-101.2a279.5 279.5 0 0036.4-73.3 294.5 294.5 0 009.2-35.4 240.6 240.6 0 0111.7-40.5l-1.2-.5c-35.7-28.7-68.4-55.4-104.1-84.1-9.7-7.8-20.2-17-21.5-29.4-1.7-17.5 15.7-30.7 32.2-36.6 30.4-10.8 64.3-9.4 95.3-.4a291.9 291.9 0 0185.2 40.3l.3.4a240.6 240.6 0 0171.6-34.3l7.7-2.8c-7.8-12.3-20.7-26.1-41.9-36 0 0 48-47.3 118.7-5 0 0-13.9-74.7-69.4-76.7 0 0 121.4-43.7 189.4 56 0 0 17-35.7 3.3-51 0 0 76.2 25.4 63.8 109.8l8.6 2.6a240.7 240.7 0 0172.7 30.3l3.4-3.1a291.9 291.9 0 0181.5-47.3c30.1-11.5 63.8-15.8 95-7.7 17 4.4 35.4 16.2 35.2 33.7-.2 12.5-9.8 22.5-18.9 31.1-33.1 31.6-71.5 64-104.6 95.6z" fill="none" xmlns="http://www.w3.org/2000/svg"/><g xmlns="http://www.w3.org/2000/svg"><path d="M1850.5 2273.9c130.6-34.8 214.8-171.9 175.8-309.9l-153.4-498.9m-692 817.3h533.6m-697.7-795.6l-97.5 512.7c-14.2 107.9 42.3 207 131.5 254.1m-32.3-775.8l-1.7 9" fill="none" stroke="#31323d" stroke-linecap="round" stroke-miterlimit="10" stroke-width="12.5"/><path d="M1228.6 2040.8c-1.7 15.3-3.8 30.4-6 45.6l-3.5 22.7-3.8 22.6c-2.6 15.1-5.4 30.1-8.1 45.2l-8.3 45.1-16.6 90.3a76.3 76.3 0 01-3.5 12.1 77.5 77.5 0 01-5.4 11.4 75.5 75.5 0 01-16 19.4 78.7 78.7 0 01-45.9 18.8l-6.3.2h-6.1l-11.5-.7-22.9-1.3-45.8-2.8h-4.7l-1.8-.3a44.1 44.1 0 01-6.7-1.7 35.7 35.7 0 01-12.3-7.3 34.7 34.7 0 01-8.3-11.7 40.4 40.4 0 01-3.1-13.5 50.7 50.7 0 011-13.2l.2-.8v-1.7l.3-1.1a26.9 26.9 0 011.5-3.6 30.2 30.2 0 014.1-6.2 37.9 37.9 0 0111-8.8 45.9 45.9 0 0112.7-4.5 49 49 0 016.6-.9l2.7-.2 2.1-.3a22 22 0 004.3-1.2 18.5 18.5 0 003.8-1.9c4.6-3 7.7-8.4 9.4-14.8a70.5 70.5 0 001.8-20.8l-.9-22.9-1.9-45.9c-.6-15.3-1.3-30.6-1.8-45.9v.5c-.6-5-1.3-9.9-2-14.9-.4-2.5-.8-4.9-1.2-7.4s-.9-4.9-1.4-7.3-1-4.9-1.6-7.3l-1.8-7.2q-1.9-7.2-4.4-14.2c-.8-2.3-1.7-4.6-2.6-6.9s-1.8-4.6-2.9-6.8l-1.5-3.4-1.6-3.3-1.7-3.3-1.8-3.3-1.8-3.2-1.9-3.2-4-6.3c-1.4-2.1-2.8-4.1-4.3-6.2l-2.2-3-2.3-3a2.2 2.2 0 013.4-2.9l5.4 5.6q2.6 2.9 5.1 5.9c1.7 2 3.3 4 4.8 6.1l2.3 3.2 2.2 3.2c1.5 2.2 2.9 4.3 4.2 6.6l2 3.4 1.9 3.4q1.9 3.4 3.5 7c1.1 2.4 2.2 4.7 3.2 7.2q3 7.2 5.4 14.7c1.6 5 3 10 4.2 15q.9 3.8 1.7 7.6c.5 2.5 1.1 5.1 1.5 7.6.9 5.1 1.7 10.2 2.4 15.3v.5c.9 15.3 1.6 30.6 2.4 45.8l2.3 45.8 1.1 22.9a94.4 94.4 0 01-.1 12.3 71.8 71.8 0 01-1.9 12.5 54.5 54.5 0 01-2 6.3 42.8 42.8 0 01-3.1 6.2 33.3 33.3 0 01-9.8 10.4 35.1 35.1 0 01-13.2 5.3l-3.5.5-3 .2a35 35 0 00-4.7.6 31.9 31.9 0 00-8.8 3.2 23.9 23.9 0 00-6.9 5.5 16.1 16.1 0 00-2.2 3.3 13 13 0 00-1.2 3.7 36.6 36.6 0 00-.7 9.6 26.2 26.2 0 002 8.7 20.4 20.4 0 004.9 6.9 21.4 21.4 0 007.3 4.3 30.1 30.1 0 004.4 1.1l1 .2h3.9l45.8 2.7 22.9 1.4 11.5.7h10.5a64.5 64.5 0 0037.6-15.2 61.4 61.4 0 0013.1-15.7 65 65 0 007.4-19.2l17.4-90.1 8.7-45.1c2.9-15 5.8-30 8.8-45l4.7-22.5 5-22.4c3.4-14.9 7-29.8 11-44.6a2.2 2.2 0 014.9.6z" fill="#31323d"/><path d="M1095.2 2319.6h-.5l-1.7.2a18.6 18.6 0 00-5.8 2 22.5 22.5 0 00-6.7 5.5 30.2 30.2 0 00-2.9 4 38.9 38.9 0 00-2.4 4.6l-.5 1.2-.5 1.2-.5 1.2-.4 1.3c-.5 1.7-.9 3.4-1.3 5l-.5 2.4c-.2.8-.3 1.6-.4 2.4s-.4 3-.6 4.4-.2 2.6-.3 3.7-.1 2.1-.2 2.9v2.7a6.3 6.3 0 11-12.5-.6 6.9 6.9 0 01.1-.8l.5-2.7c.2-.9.3-1.9.6-3.1s.5-2.6.9-4.1.8-3.1 1.3-4.8l.8-2.6.9-2.7c.7-1.8 1.4-3.7 2.3-5.5l.6-1.4.7-1.4.7-1.4.8-1.4a46.9 46.9 0 013.6-5.2 37.5 37.5 0 014.2-4.5 28.8 28.8 0 019.4-5.8 23.9 23.9 0 017.7-1.5h3.1a2.2 2.2 0 11-.5 4.8zm-42.5-4.7h-.6l-1.6.4-2.5.9-.7.3-.8.4-1.6.9-1.7 1.1-1.7 1.3-.9.7-.8.8-1.6 1.7-1.5 2-.7 1-.6 1.1-1.3 2.2-1.1 2.4c-.3.8-.7 1.6-1 2.4l-.8 2.5-.8 2.4-.6 2.5a42.3 42.3 0 00-1 4.7l-.6 4.3a35.4 35.4 0 00-.3 3.7l-.2 2.8-.2 2.5v.4a6.3 6.3 0 11-12.5-.8 6.9 6.9 0 01.1-.8l.5-2.7.6-3.1c.3-1.2.4-2.5.9-4l1.3-4.7a51.3 51.3 0 011.8-5.2l1-2.7 1.3-2.7 1.3-2.7c.5-.9 1.1-1.8 1.6-2.7l1.7-2.6 1.9-2.4.9-1.2 1.1-1.1 2.1-2.1 2.2-1.8 1.1-.9 1.2-.7 2.2-1.4 2.2-1.1 2.1-.8 1-.4 1-.3a26.5 26.5 0 013.2-.7l2.2-.2h.8a2.2 2.2 0 11.4 4.4zm621-289.7l2.2 9.4c1.4 6.1 3.4 15.1 5.8 26.6 1.2 5.7 2.5 12.1 3.9 19l4.4 22.5 4.8 25.6 5 28.4 23.3 135.3c1.1 6.1 2 12.8 3.6 17.8a63.3 63.3 0 007.2 15.7 65.1 65.1 0 0025.9 23.4l4.1 1.9 1.1.4 1 .4 2 .7a45.4 45.4 0 008.4 1.7l4.3.3h4.6l10-.3 40.1-1.4 39.4-1.2 2.5-.3 1.2-.2.9-.2 1.9-.4 1.9-.6a21.7 21.7 0 006.5-3.5 17 17 0 004.3-5.4c.2-.6.6-1.1.7-1.7l.6-1.8a30.4 30.4 0 00.8-3.9 37.8 37.8 0 00.4-4.1v-2.1c0-.7 0-1.4-.1-2.2l-.2-2.2v-.3a.3.3 0 110-.1v-1.6l-.2-.8-.2-.9c-.1-.6-.4-1.3-.6-1.9-1.7-5-4.7-9.3-8.4-11.7a17.3 17.3 0 00-6.4-2.3l-1.8-.2-2.6-.2h-1.2l-1.5-.2-2.9-.5a39.5 39.5 0 01-10.9-4.2 30.1 30.1 0 01-9.1-8 34 34 0 01-5.3-10.4 47.2 47.2 0 01-1.9-10.7c-.1-.9-.1-1.7-.1-2.6V2259l.2-9.1.8-35.4.2-8.6v-3.7V2201.3l.3-4.2.3-4.2c.1-1.4.2-2.7.4-4.2l1-8.4a250.4 250.4 0 016.4-31.5 277 277 0 019.1-28l2.7-6.4c.9-2.1 1.7-4.2 2.7-6.2l2.8-5.9c.9-1.9 1.8-3.9 2.8-5.7l2.9-5.4 1.4-2.6 1.5-2.5 2.9-4.9c.9-1.6 1.8-3.2 2.8-4.7l5.6-8.7 5.4-7.7 2.6-3.5 2.5-3.2c1.6-2.1 3.1-4.1 4.6-5.8l4.1-4.9 3.5-4 6.6-7.1a2.2 2.2 0 013.4 2.8l-5.6 7.8c-3.6 5.1-8.8 12.6-14.9 22.5l-4.7 7.8-4.8 8.8c-.9 1.5-1.7 3.1-2.5 4.7l-2.5 4.9-1.3 2.5-1.2 2.6-2.5 5.4a290.9 290.9 0 00-17.7 50.6l-.9 3.6-.4 1.8-.4 1.8-1.5 7.4-.4 1.9-.3 1.9-.6 3.8-.6 3.9-.3 1.9-.2 1.9-.9 7.8c-.2 1.3-.2 2.7-.3 4.1l-.3 4.2-.3 4.2v12.5l-.5 35.4V2265.9c0 .7 0 1.4.1 2a33.7 33.7 0 001.4 7.5 20.3 20.3 0 003.2 6.2c2.7 3.6 6.9 5.8 12 6.9l1.8.3.9.2h1.2l2.2.2 3 .3a31.3 31.3 0 0111.7 4.2 31.8 31.8 0 019 8.5 40.3 40.3 0 015.4 10.5c.3.9.6 1.8.8 2.8l.4 1.4.3 1.6v2.9l.2 2.7c.1.9.1 1.8.1 2.8s.1 1.8 0 2.8a52 52 0 01-.5 5.7 44.4 44.4 0 01-1.2 5.8l-1 2.9c-.3 1-.8 1.9-1.3 2.9a31.3 31.3 0 01-7.9 10.1 35.8 35.8 0 01-10.9 6l-2.8.9-3 .7-1.5.3-1.3.2-2.5.3h-5.7l-5 .2-10 .4-20.1.7-40.1 1.3-10 .3h-5.4l-5.6-.4a59.7 59.7 0 01-11-2.3l-2.7-.9-1.4-.5-1.2-.5-4.9-2.3a79.2 79.2 0 01-31.4-28.6 77.2 77.2 0 01-8.7-19.2l-.7-2.6-.3-1.3c-.1-.4-.2-.9-.3-1.3l-.5-2.3-.2-1.2v-1.4l-1.5-9.3-22-135.6-4.5-28.5-3.8-25.7-3.2-22.7c-1-7-1.8-13.4-2.5-19.3-1.5-11.6-2.5-20.8-3.2-27.1l-1-9.6a2.2 2.2 0 013.8-.6z" fill="#31323d"/><path d="M1783.2 2307.4h3.2a34.8 34.8 0 018 1.7 33.5 33.5 0 015.1 2.1 34.2 34.2 0 015.3 3.3 37.9 37.9 0 015 4.5c.7.9 1.5 1.7 2.2 2.7l1 1.4 1 1.5a46.8 46.8 0 013.3 6.1 56.5 56.5 0 012.4 6.2c.4 1 .6 2 .9 3s.5 2 .7 2.9l.6 2.8.4 2.6c.3 1.7.4 3.2.6 4.6s.3 2.5.3 3.5l.2 3.1a6.3 6.3 0 01-12.5.8 6.4 6.4 0 010-.7v-.3l.2-2.7c.1-.9.1-1.9.1-3.1s.1-2.6 0-4v-2.3l-.2-2.4c-.1-.8-.2-1.7-.3-2.5s-.2-1.8-.4-2.6a47.1 47.1 0 00-1.3-5.3 38.1 38.1 0 00-2.1-5.2l-.6-1.3-.7-1.2c-.4-.8-1-1.6-1.5-2.3a30.5 30.5 0 00-3.5-4.1 29.3 29.3 0 00-8-5.5 29.5 29.5 0 00-6.6-2.2l-1.9-.3h-.7a2.2 2.2 0 01-.2-4.8zm50.6-3.2h3.2a34.8 34.8 0 018 1.7 33.5 33.5 0 015.1 2.1 34.2 34.2 0 015.3 3.3 37.9 37.9 0 015 4.5c.7.9 1.5 1.7 2.2 2.7l1 1.4 1 1.5a46.8 46.8 0 013.3 6.1 56.6 56.6 0 012.4 6.2c.4 1 .6 2 .9 3s.5 2 .7 2.9l.6 2.8.4 2.6c.3 1.7.4 3.2.6 4.6s.3 2.5.3 3.5l.2 3.1a6.3 6.3 0 11-12.5.1v-.3l.2-2.7c.1-.9.1-1.9.1-3.1s.1-2.6 0-4v-2.3l-.2-2.4c-.1-.8-.2-1.7-.3-2.5s-.2-1.8-.4-2.6a47.1 47.1 0 00-1.3-5.3 38 38 0 00-2.1-5.2l-.6-1.3-.7-1.2c-.4-.8-1-1.6-1.5-2.3a30.5 30.5 0 00-3.5-4.1 29.3 29.3 0 00-8-5.5 29.5 29.5 0 00-6.6-2.2l-1.9-.3h-.7a2.2 2.2 0 01-.2-4.8z" fill="#31323d"/><path d="M931.3 2117.4c-38.1 9.1-130.4 43.4-184.5 78.3-26.5 17.1-10.1 55.9 23.2 55.3l280.4-5.5" fill="none" stroke="#31323d" stroke-linecap="round" stroke-miterlimit="10" stroke-width="12.5"/><path d="M840.5 2200.1l-.7.2-2 .6-3.1 1-4 1.5-4.5 2.1a49.4 49.4 0 00-4.7 2.8 36 36 0 00-4.4 3.5 26.3 26.3 0 00-3.7 4.2l-.8 1.1-.7 1.2a21.4 21.4 0 00-1.1 2.4c-.2.4-.3.8-.4 1.2a8.9 8.9 0 00-.3 1.2 18.1 18.1 0 00-.4 2.4V2229.1c0 .4.1.8.1 1.2a15.6 15.6 0 00.3 2.2c.2.7.3 1.4.5 2.1a36.6 36.6 0 001.2 3.6 29.8 29.8 0 001.2 2.8l1.2 2.4.2.3a6.3 6.3 0 01-11.3 5.5l-.3-.7-1.1-3.1c-.4-1-.7-2.2-1.1-3.7a48 48 0 01-1-4.9c-.1-.9-.2-1.9-.3-2.9a24.9 24.9 0 01-.1-3.2v-1.7l.2-1.7c.1-.6.1-1.2.2-1.7l.4-1.8a27.7 27.7 0 011-3.5 16.1 16.1 0 01.7-1.7l.8-1.7a30.5 30.5 0 012-3.2l1.1-1.5 1.2-1.4a34.5 34.5 0 015.4-4.9 43.4 43.4 0 015.8-3.6 56.1 56.1 0 015.7-2.6l5.2-1.8 4.4-1.2 3.5-.7 2.3-.3h.8a2.2 2.2 0 01.8 4.4h-.1zm-47.5 2h-.6l-1.7.5a38.1 38.1 0 00-5.9 2.5 32.6 32.6 0 00-3.6 2.2 29.2 29.2 0 00-3.5 2.9 23.5 23.5 0 00-2.9 3.7 18.7 18.7 0 00-2 4.2 21.2 21.2 0 00-.6 2.2c-.1.8-.3 1.5-.3 2.3a24.7 24.7 0 00.1 4.6 34.5 34.5 0 00.8 4.3c.4 1.4.7 2.7 1.2 3.9l.6 1.7.7 1.5.6 1.3.6 1.1 1.1 2.1v.2a6.3 6.3 0 01-11.2 5.6l-.3-.8-.9-2.7-.5-1.4-.5-1.7-.5-1.9c-.2-.7-.3-1.4-.5-2.2s-.6-3.3-.8-5.1a44.7 44.7 0 01-.2-5.9 34.2 34.2 0 01.8-6.3c.2-1.1.6-2.1.9-3.2a29.7 29.7 0 011.3-3.1 26.9 26.9 0 013.6-5.6 31 31 0 014.5-4.3 35.8 35.8 0 014.8-3 38.6 38.6 0 014.6-2 43.3 43.3 0 017.1-2l2-.3h.8a2.2 2.2 0 01.8 4.4h-.4z" fill="#31323d"/><path d="M2020.7 2120.2c47.5 13.8 136.8 46.1 179.8 75.5 26.1 17.8 10.1 55.9-23.2 55.3l-261.6-5.1" fill="none" stroke="#31323d" stroke-linecap="round" stroke-miterlimit="10" stroke-width="12.5"/><path d="M2107.6 2193.7h.8l2.3.4 3.5.8 4.5 1.4 5.2 2a58.4 58.4 0 015.6 2.8 45.8 45.8 0 015.7 3.8 36.7 36.7 0 015.3 5.1l1.2 1.5 1.1 1.6a31 31 0 011.9 3.3c.3.6.5 1.2.8 1.7s.5 1.2.7 1.8l.6 1.8.3.9.2.9a26.4 26.4 0 01.6 3.5 25.1 25.1 0 01.2 3.4 42.1 42.1 0 01-.4 6.2 50.3 50.3 0 01-1 5c-.4 1.5-.7 2.8-1.1 3.7l-1.1 3.2a6.3 6.3 0 01-11.8-4.1l.3-.7.2-.3 1.2-2.4c.4-.8.7-1.7 1.2-2.8s.8-2.3 1.2-3.7a31.5 31.5 0 00.8-4.4 15.7 15.7 0 00.1-2.4 16.7 16.7 0 00-.1-2.5v-1.2l-.2-1.3c-.1-.4-.2-.8-.4-1.3a12.8 12.8 0 00-.4-1.3 21.8 21.8 0 00-1.1-2.5l-.7-1.2-.8-1.2a28.5 28.5 0 00-3.7-4.4 38.4 38.4 0 00-4.4-3.8 51.5 51.5 0 00-4.7-3l-4.5-2.3a66.6 66.6 0 00-7.1-2.9l-2-.6-.7-.2h-.1a2.2 2.2 0 01.8-4.3zm47.5 2h.8l2.1.4a44.7 44.7 0 017.1 2.4 40.4 40.4 0 014.5 2.3 38.2 38.2 0 014.7 3.3 33.1 33.1 0 014.4 4.5 30 30 0 014.8 8.8c.4 1.1.6 2.2.9 3.2s.4 2.2.6 3.3.3 2.2.2 3.2.1 2.1 0 3.1l-.2 2.9c-.3 1.8-.5 3.6-.8 5.2l-.5 2.3-.6 2-.5 1.8-.5 1.4-.9 2.7a6.3 6.3 0 01-11.8-4.1l.3-.7v-.3l1.1-2.2.6-1.2.6-1.4.7-1.6.6-1.7c.5-1.2.8-2.6 1.2-4l.4-2.2c.2-.7.2-1.5.3-2.3s.1-1.5.1-2.3-.1-1.6-.1-2.4-.2-1.6-.3-2.4a20.2 20.2 0 00-.6-2.3 20.6 20.6 0 00-2-4.4 25.7 25.7 0 00-2.9-3.9 31.5 31.5 0 00-3.5-3.2 34.4 34.4 0 00-3.6-2.4 39.4 39.4 0 00-5.9-2.9l-1.7-.6-.6-.2h-.1a2.2 2.2 0 011.1-4.1zM1288.7 864.1l-1.9-4.8-1-2.4-1-2.3-2.3-4.6-2.4-4.4-1.3-2.2-1.3-2.1-1.3-2.1-1.4-2.1c-.9-1.4-1.9-2.7-2.9-4s-2.1-2.6-3.2-3.8l-1.6-1.9-1.7-1.8-3.6-3.5-3.7-3.3-3.9-3.1-2-1.5-2.1-1.4-4.2-2.8-2.1-1.3-2.2-1.3-4.4-2.5-.8-.5a6.1 6.1 0 01-2.1-8.3 6.3 6.3 0 011.1-1.4l.9-.9.8-.7 1.7-1.4 3.4-2.6q3.5-2.5 7.1-4.7a101.1 101.1 0 0115.3-7.4 98.2 98.2 0 0133.2-6.6 106 106 0 0133.4 4.7q4 1.2 7.9 2.7t7.7 3.2c2.5 1.1 5 2.4 7.5 3.7l3.6 2 3.6 2.1-9.4 6.5-.3-1.5-.4-1.6-.8-3.2q-.9-3.2-1.9-6.4c-1.4-4.2-2.9-8.4-4.7-12.5a106.9 106.9 0 00-13.1-22.8 64.2 64.2 0 00-18.7-16.9 50.6 50.6 0 00-23.6-6.7 6.2 6.2 0 01-1.8-12.1l3.4-1.1 3.3-1 6.6-1.7q6.7-1.6 13.4-2.8a217.1 217.1 0 0127.2-3 195.4 195.4 0 0127.4.6 170.2 170.2 0 0127.1 4.7q6.7 1.7 13.2 4c4.3 1.5 8.6 3.3 12.8 5.2s8.3 4 12.3 6.4 7.9 4.8 11.6 7.5c1.9 1.3 3.7 2.8 5.5 4.2s3.6 2.9 5.3 4.4c3.5 3 6.8 6.3 10 9.5s6.2 6.8 9.1 10.4 5.6 7.3 8.2 11.1l-10.8.8 1.2-2.8 1.2-2.9c.8-2 1.4-4 2.1-6a83.6 83.6 0 002.9-12.1 42.4 42.4 0 00.4-11.6 20.8 20.8 0 00-1.2-5 13 13 0 00-2.3-3.8 6.2 6.2 0 016.6-10.1h.1l1.5.5 1.3.5 2.6 1 5 2.2c3.3 1.6 6.5 3.3 9.6 5.1a113.6 113.6 0 0117.5 12.9q4.1 3.7 7.8 7.8a95.7 95.7 0 016.9 8.6 94.1 94.1 0 0110.7 19.3 100.9 100.9 0 013.5 10.5 98.6 98.6 0 012.3 10.8 104.1 104.1 0 011.1 10.9c.2 3.6.1 7.3 0 10.9s-.5 7.2-1 10.8c-.3 1.8-.5 3.6-.9 5.3s-.8 3.5-1.2 5.2a81.7 81.7 0 01-3.5 10.1c-.7 1.6-1.5 3.2-2.3 4.8s-1.7 3.1-2.7 4.6a2.6 2.6 0 01-4.7-1.5c0-1.8.2-3.5.4-5.2s.3-3.4.5-5.1l1.1-9.9c.2-1.6.4-3.3.5-4.9s.2-1.6.3-2.4l.2-2.4c.3-3.2.5-6.5.5-9.7s-.1-6.4-.3-9.6a93.1 93.1 0 00-1.3-9.5 84.7 84.7 0 00-2.2-9.2 86.9 86.9 0 00-3.2-8.9 94 94 0 00-4.2-8.5 84.6 84.6 0 00-5.1-8 93.8 93.8 0 00-5.9-7.4q-3.2-3.6-6.7-6.8c-2.3-2.2-4.8-4.2-7.3-6.2s-5.2-3.8-7.9-5.6-5.5-3.4-8.3-5l-4.3-2.2-2.2-1-1.1-.5-.9-.4 6.7-10.1a25.5 25.5 0 014.6 7.6 33.2 33.2 0 012 8 54.6 54.6 0 01-.5 15.1 96 96 0 01-3.4 13.9q-1.1 3.4-2.3 6.7l-1.3 3.3-1.5 3.4a6.2 6.2 0 01-10.7 1h-.1c-2.4-3.5-4.9-7-7.6-10.3s-5.5-6.5-8.4-9.6-6-6-9.2-8.8c-1.6-1.4-3.2-2.7-4.9-4.1s-3.3-2.6-5.1-3.8a136.2 136.2 0 00-45.8-21.2 157.7 157.7 0 00-25.2-4.3 182.9 182.9 0 00-25.7-.5 204.7 204.7 0 00-25.6 2.9q-6.4 1.1-12.6 2.6l-6.2 1.6-3 .9-2.9.9-1.9-12.1a69.4 69.4 0 017.7.7 61.3 61.3 0 017.6 1.6 59.6 59.6 0 017.3 2.6 61.6 61.6 0 016.9 3.4 70.1 70.1 0 0112.3 9 85.8 85.8 0 0110.1 11.1 119.3 119.3 0 0114.6 25.4q2.9 6.7 5.1 13.6 1.1 3.5 2.1 7l.9 3.5.4 1.8.4 1.9a6.2 6.2 0 01-9.2 6.6h-.1l-3.3-1.9-3.3-1.8-6.8-3.4-7-2.9-7.1-2.5a93.5 93.5 0 00-29.5-4.2 85.7 85.7 0 00-29 5.8 88.7 88.7 0 00-13.4 6.5c-2.1 1.3-4.2 2.6-6.2 4.1l-2.9 2.2-1.4 1.1-.6.6-.5.5-1.8-10.1 5.2 2.3c1.7.9 3.4 1.7 5.1 2.6s3.3 1.9 4.9 3l2.4 1.6 2.3 1.7c1.6 1.1 3 2.4 4.5 3.6s2.9 2.5 4.3 3.9 2.7 2.8 4 4.2l1.9 2.2 1.8 2.3c1.2 1.5 2.3 3.1 3.4 4.7s2.1 3.3 3 4.9l1.4 2.5 1.3 2.6c.8 1.7 1.6 3.5 2.2 5.3s1.2 3.6 1.7 5.5a55.7 55.7 0 011.2 5.6c.1 1 .3 1.9.4 2.8s.2 1.9.2 2.9a36 36 0 01-.1 5.9 2.5 2.5 0 01-4.9.6v-.2z" fill="#31323d"/><path d="M1202.2 872a291.9 291.9 0 00-85.2-40.3c-31-9-64.9-10.4-95.3.4-16.5 5.9-33.9 19.1-32.2 36.6 1.2 12.4 11.7 21.6 21.5 29.4 35.7 28.7 68.4 55.4 104.1 84.1m515.3-120.1a291.9 291.9 0 0181.5-47.3c30.1-11.5 63.8-15.8 95-7.7 17 4.4 35.4 16.2 35.2 33.7-.2 12.5-9.8 22.5-18.9 31.1-33.1 31.6-71.5 64-104.6 95.6" fill="none" stroke="#31323d" stroke-linecap="round" stroke-linejoin="round" stroke-width="12.5"/><path d="M1054.6 1454.8l-6 4.6-5.8 4.6-5.7 4.7-5.5 4.9-5.4 5-5.2 5.1-5.1 5.2-4.9 5.4-4.7 5.6-4.6 5.7-4.3 5.8-4.2 6-4 6.1-3.8 6.2-3.6 6.3-3.5 6.4-1.3 2.3a5.5 5.5 0 01-10.2-2.7l-2.1-5.7-1.9-5.7-1.8-5.8-1.6-5.8-1.4-5.9-1.2-5.9-1.1-5.9-.9-6-.7-6-.5-6-.3-6-.2-6v-6l.2-6 .4-6 .6-6 10.6 5.2-5 5.1-4.7 5.4-4.3 5.7-4 6-3.6 6.2-3.3 6.4-2.9 6.6-2.5 6.7-2.1 6.9-1.7 7-1.3 7.1-.9 7.1-.5 7.2v7.2l.4 7.2.8 7.1v.2a6.2 6.2 0 01-11.9 3.4 271.4 271.4 0 01-18.2-51.9 294.6 294.6 0 01-7.4-54.4 309.9 309.9 0 012.8-54.8c.3-2.3.7-4.5 1.1-6.8l.6-3.4.3-1.7v-.9l.2-.8c.9-4.4 1.7-8.7 2.8-13.3l1.6-6.7 1.8-6.6c1.1-4.4 2.6-8.8 3.9-13.1a359.1 359.1 0 0120.9-50.6 389.7 389.7 0 0128-46.9c1.3-1.9 2.6-3.7 4-5.6l4-5.5c2.8-3.6 5.5-7.3 8.4-10.8l8.6-10.5 8.7-10.3c11.7-13.7 23.7-27 35.2-40.6q8.7-10.2 16.8-20.7c5.4-7 10.7-14.1 15.6-21.4s9.4-14.8 13.4-22.5 7.9-15.7 11.2-23.8 6.3-16.4 9-24.7 4.8-16.9 6.6-25.5l.7-3.2.3-1.7.4-1.6 1.4-6.6c1.1-4.5 2.2-9.1 3.5-13.4a238.3 238.3 0 019.2-26 259.7 259.7 0 0112-24.8 256.9 256.9 0 0114.8-23.3 235.7 235.7 0 0117.3-21.5 248 248 0 01115.5-73.1 6.2 6.2 0 013.5 12h-.1a234.8 234.8 0 00-109.5 68.8 223.3 223.3 0 00-16.4 20.4 244.5 244.5 0 00-14 22.1 247.1 247.1 0 00-11.4 23.6 225.8 225.8 0 00-8.7 24.7c-1.3 4.2-2.3 8.4-3.3 12.6l-1.4 6.6-.4 1.6-.3 1.6-.7 3.4c-1.9 8.9-4.2 17.8-6.9 26.6s-5.8 17.4-9.4 25.8-7.4 16.8-11.7 24.9-9 15.9-14.1 23.7-10.5 14.9-16.1 22.1-11.3 14.2-17.1 21.1c-11.7 13.8-23.7 27.1-35.3 40.7l-8.6 10.2-8.4 10.3c-2.8 3.4-5.4 7-8.1 10.5l-3.9 5.4c-1.3 1.8-2.6 3.6-3.8 5.4a377.3 377.3 0 00-27.1 45.4 346.6 346.6 0 00-20.1 48.8c-1.3 4.2-2.7 8.4-3.8 12.6l-1.7 6.4-1.5 6.3c-1.1 4.2-1.9 8.7-2.8 13l-.2.8V1390l-.3 1.6-.8 3.4c-.3 2.2-.8 4.3-1 6.5a297.4 297.4 0 00-2.7 52.5 282.2 282.2 0 007.1 52 259 259 0 0017.3 49.5l-11.8 3.6-.9-7.9-.4-7.9v-7.9l.5-7.9 1-7.9 1.5-7.8 1.9-7.7 2.3-7.6 2.8-7.4 3.2-7.2 3.6-7.1 4-6.8 4.4-6.6 4.8-6.3 5.2-6 5.5-5.7a6.2 6.2 0 0110.6 4.9v.3l-.5 5.6-.4 5.6-.2 5.6v5.7l.2 5.7.3 5.6.5 5.6.7 5.6.8 5.6 1 5.6 1.2 5.5 1.3 5.5 1.5 5.5 1.6 5.4 1.8 5.4 2 5.3-11.7-.4 3.2-7.1 3.6-6.9 3.9-6.8 4.2-6.6 4.5-6.4 4.8-6.1 5-5.9 5.3-5.7 5.5-5.5 5.8-5.2 6-4.9 6.2-4.6 6.5-4.3 6.7-3.9 6.9-3.6 7-3a2.5 2.5 0 012.5 4.3zm501.2-625.9l6.6 1.7 3.3.9 3.4 1 6.7 2.1 3.3 1.1 3.3 1.2a236.4 236.4 0 0125.6 10.8 246.5 246.5 0 0146.7 29.8 242.7 242.7 0 0138.9 39.4 245.1 245.1 0 0139.6 72.8c.7 2.2 1.5 4.4 2.2 6.6l1 3.3.5 1.7.3.8v1l3.4 13.1 13.4 52.5c.5 2.2 1 4.4 1.6 6.5s1.1 4.2 1.7 6.4 1.2 4.3 1.8 6.4 1.3 4.2 2 6.3a193.5 193.5 0 009.8 24.3 132.6 132.6 0 0013.5 22 113.4 113.4 0 008.3 9.7l2.2 2.3.6.6h.2l.3.3 1.2 1.2 2.5 2.3 2.4 2.2c6.5 5.8 13.5 11.3 20.6 16.6s14.5 10.4 21.9 15.6 14.8 10.4 22.1 15.9l5.5 4.2 2.8 2.2 2.6 2.1 5.2 4.3 5.2 4.6a308.5 308.5 0 0137.8 40.2 327.3 327.3 0 0130.4 46c1.1 2 2.2 4 3.2 6.1l3.2 6.1 3 6.2 1.5 3.1 1.4 3.2 2.8 6.3 2.6 6.4c1.8 4.2 3.3 8.6 4.9 12.9a351 351 0 0120 107.9 351.4 351.4 0 01-3 55 6.2 6.2 0 01-11.5 2.4h-.1l-3.3-5.6-3.4-5.5-3.6-5.4-3.8-5.2-3.9-5.1-4.1-5-4.3-4.9-4.4-4.7-4.5-4.6-4.7-4.5-4.8-4.3-4.9-4.2-5.1-4-5.2-3.8-5.3-3.7-5.4-3.5 8.3-9.1 2.8 3.8 2.7 3.9 2.5 4 2.4 4.1 2.2 4.1 2.1 4.2 1.9 4.3 1.8 4.4 1.6 4.4 1.5 4.5 1.3 4.5 1.2 4.6 1 4.6.8 4.6.7 4.7.5 4.7a6.2 6.2 0 01-10.8 4.8l-.4-.5-5.4-6.2-5.7-5.9-6-5.6-6.3-5.3-6.5-5-6.8-4.6-7-4.3-7.2-3.9-7.5-3.5-7.6-3.2-7.8-2.8-7.9-2.4-8.1-2.1-8.2-1.7-8.3-1.3-8.4-1h-.2a2.5 2.5 0 01.1-5l8.8-.9h8.9l8.9.5 8.8 1.2 8.8 1.8 8.6 2.4 8.5 3 8.3 3.5 8.1 4 7.8 4.5 7.5 4.9 7.2 5.4 6.8 5.9 6.4 6.3 6 6.7 5.5 7.2-11.2 4.3-.4-4.2-.6-4.2-.7-4.2-.9-4.2-1-4.1-1.2-4.1-1.3-4.1-1.5-4-1.6-4-1.8-3.9-1.9-3.8-2-3.8-2.2-3.7-2.3-3.6-2.4-3.5-2.5-3.4v-.2a6.2 6.2 0 018.4-8.9l5.7 3.7 5.6 3.9 5.5 4.1 5.4 4.2 5.2 4.4 5.1 4.6 5 4.7 4.8 4.9 4.7 5 4.5 5.2 4.3 5.3 4.2 5.4 4 5.6 3.8 5.7 3.7 5.8 3.5 5.9-11.6 2.2a338.9 338.9 0 002.9-53 338.5 338.5 0 00-19.3-104c-1.5-4.2-3-8.3-4.7-12.4l-2.5-6.2-2.7-6.1-1.3-3-1.4-3-2.9-6-3-5.9c-1-2-2-3.9-3.1-5.9a314.8 314.8 0 00-29.2-44.2l-4.1-5.2-4.3-5c-2.8-3.4-5.9-6.6-8.9-9.9-1.5-1.6-3.1-3.2-4.6-4.8s-3.1-3.2-4.7-4.7c-3.2-3-6.4-6.2-9.7-9l-4.9-4.3-5.2-4.3-2.6-2.1-2.5-2-5.3-4c-7.1-5.3-14.4-10.5-21.8-15.7-14.8-10.4-29.7-20.8-43.7-33.1l-2.6-2.3-2.5-2.3-1.2-1.2-.7-.6-.6-.6-2.5-2.5a125.9 125.9 0 01-9.3-10.8 145.1 145.1 0 01-14.7-24.1c-8.3-16.8-13.7-34.6-17.9-52.4l-13.4-52.3-3.4-13.1-1.8-6.2c-.6-2.1-1.4-4.2-2.1-6.3a232.6 232.6 0 00-37.6-69.1 230.2 230.2 0 00-37-37.4 234 234 0 00-44.4-28.3 223.9 223.9 0 00-24.3-10.2l-3.1-1.1-3.1-1-6.3-1.9-3.1-.9-3.2-.9-6.6-1.7a6.2 6.2 0 012.7-12.8z" fill="#31323d"/></g></g></svg>